<?xml version="1.0" encoding="UTF-8" standalone="no"?>
<!-- Created with Inkscape (http://www.inkscape.org/) -->

<svg
   width="70.345047mm"
   height="64.708946mm"
   viewBox="0 0 70.345047 64.708946"
   version="1.1"
   id="svg5"
   xml:space="preserve"
   xmlns:inkscape="http://www.inkscape.org/namespaces/inkscape"
   xmlns:sodipodi="http://sodipodi.sourceforge.net/DTD/sodipodi-0.dtd"
   xmlns="http://www.w3.org/2000/svg"
   xmlns:svg="http://www.w3.org/2000/svg"><sodipodi:namedview
     id="namedview7"
     pagecolor="#ffffff"
     bordercolor="#000000"
     borderopacity="0.25"
     inkscape:showpageshadow="2"
     inkscape:pageopacity="0.0"
     inkscape:pagecheckerboard="0"
     inkscape:deskcolor="#d1d1d1"
     inkscape:document-units="mm"
     showgrid="false" /><defs
     id="defs2" /><g
     inkscape:label="Layer 1"
     inkscape:groupmode="layer"
     id="layer1"
     transform="translate(-250.48656,-88.564885)"><path
       d="m 268.61052,152.85362 c -4.14476,-0.94933 -7.45781,-2.72123 -10.63375,-5.68721 -5.03671,-4.70372 -7.49021,-10.32059 -7.49021,-17.1475 0,-3.72216 0.45633,-6.02277 1.82732,-9.21258 1.30934,-3.04636 2.67309,-5.04426 5.07212,-7.43066 3.06158,-3.04546 6.86194,-5.15189 11.2633,-6.24292 2.73472,-0.67789 7.79776,-0.61645 10.64933,0.12923 6.0509,1.5823 11.22774,5.35661 14.26163,10.39782 2.37233,3.94194 3.22853,6.8155 3.42602,11.4983 0.27856,6.6051 -1.75554,12.08556 -6.25651,16.85682 -2.96614,3.14427 -7.03727,5.58778 -11.13904,6.68572 -2.593,0.69407 -8.27231,0.7732 -10.98021,0.15298 z m 9.58837,-10.78745 c 3.36395,-1.31754 5.69598,-3.51935 7.26049,-6.85506 0.74584,-1.59019 0.87578,-2.18404 0.96693,-4.41894 0.12013,-2.94516 -0.14568,-4.27279 -1.35001,-6.74278 -1.52434,-3.12635 -4.65444,-5.58765 -8.30188,-6.52807 -2.0656,-0.53258 -3.70887,-0.5304 -5.89803,0.008 -4.61644,1.13496 -7.86887,4.1006 -9.31948,8.4977 -1.46229,4.43248 -0.37425,9.40039 2.78777,12.72878 2.70535,2.84769 5.34852,3.97695 9.35629,3.99734 2.32362,0.0118 2.96377,-0.0859 4.49792,-0.68679 z m 20.92739,-11.40393 c 0.0647,-2.65386 -0.0248,-4.12584 -0.33072,-5.44055 -0.57989,-2.492 -0.55416,-2.63697 0.57278,-3.22705 0.5457,-0.28574 1.64703,-0.89076 2.44739,-1.34448 0.80037,-0.45373 2.26252,-1.26312 3.24925,-1.79867 0.98671,-0.53554 2.17734,-1.18667 2.64583,-1.44696 0.46849,-0.26029 2.10195,-1.16541 3.62992,-2.01138 1.52797,-0.84596 3.15179,-1.76152 3.6085,-2.03455 l 0.98776,1.53696 2.41441,2.74781 c 1.97091,2.24306 2.5291,4.81638 2.47692,4.85939 -0.27817,0.22925 -21.47964,11.79735 -21.62191,11.7975 -0.0928,9e-5 -0.1289,-1.63702 -0.0801,-3.63802 z m -2.87396,-12.70018 c -1.09083,-1.94912 -3.12638,-4.70454 -4.33846,-5.87274 -0.52032,-0.50149 -0.94604,-0.99907 -0.94604,-1.10574 0,-0.16715 4.07977,-2.49088 12.96458,-7.38426 1.23693,-0.68124 2.78474,-1.53672 3.43958,-1.90107 0.65484,-0.36435 1.84547,-1.02444 2.64583,-1.46686 0.80037,-0.442434 2.19307,-1.222784 3.09489,-1.734134 2.38856,-1.35436 2.6078,-1.39118 3.10931,-0.52225 1.71501,2.971494 4.57328,8.443264 4.48511,8.586144 -0.0946,0.15332 -2.45635,1.48334 -7.91118,4.4552 -0.87313,0.47569 -2.65906,1.46275 -3.96875,2.19346 -1.30969,0.73071 -2.8575,1.58941 -3.43958,1.90821 -0.58209,0.3188 -2.61416,1.43144 -4.51572,2.47252 -1.90156,1.04108 -3.5273,1.89288 -3.61276,1.89288 -0.0855,0 -0.53853,-0.68461 -1.00681,-1.52136 z m -8.85638,-9.51045 c -1.02722,-0.79379 -5.31405,-2.67712 -7.07186,-3.10687 -0.97911,-0.23938 -2.88411,-0.58388 -4.23333,-0.76555 -1.68335,-0.22668 -2.28709,-0.3936 -1.92398,-0.53196 0.29105,-0.11089 1.66026,-0.83918 3.04271,-1.61842 1.38245,-0.77922 5.19245,-2.898424 8.46667,-4.709324 3.27422,-1.81089 8.37185,-4.63211 11.32808,-6.269381 2.95622,-1.63727 5.40932,-2.93496 5.45133,-2.88375 0.042,0.0512 0.70773,1.28373 1.47939,2.73894 0.77165,1.455211 1.86066,3.460161 2.42002,4.455461 0.55935,0.99529 1.01701,1.95551 1.01701,2.13381 0,0.1783 -0.38695,0.52003 -0.85989,0.7594 -0.47295,0.23936 -1.8124,0.95652 -2.97657,1.593684 -2.89459,1.58425 -7.36821,4.04531 -9.12812,5.02165 -0.80037,0.44401 -1.99099,1.0998 -2.64583,1.4573 -0.65485,0.3575 -1.78594,0.98388 -2.51355,1.39197 -1.21772,0.68297 -1.36499,0.70945 -1.85208,0.33304 z"
       style="fill:#ffffff;stroke-width:0.264583"
       id="path229"
       inkscape:export-filename="path229.png"
       inkscape:export-xdpi="96"
       inkscape:export-ydpi="96" /></g></svg>
