<?xml version="1.0" encoding="UTF-8" standalone="no"?>
<!-- Created with Inkscape (http://www.inkscape.org/) -->

<svg
   width="58.769363mm"
   height="16.199692mm"
   viewBox="0 0 58.769363 16.199692"
   version="1.1"
   id="svg5"
   xml:space="preserve"
   xmlns="http://www.w3.org/2000/svg"
   xmlns:svg="http://www.w3.org/2000/svg"><defs
     id="defs2" /><g
     id="layer1"
     transform="translate(-250.21358,-212.61181)"><path
       style="fill:#ffffff;stroke-width:0.264583"
       d="m 252.3336,228.17991 c -1.92192,-1.01633 -2.12002,-1.6792 -2.12002,-7.0939 0,-4.39845 0.0336,-4.7107 0.59532,-5.53606 1.25383,-1.84224 1.64547,-1.97253 6.21363,-2.06708 4.97094,-0.10289 6.03502,0.17629 7.16219,1.87909 0.70668,1.06758 0.71324,1.12034 0.71324,5.72733 0,5.31219 -0.2076,6.00304 -2.13141,7.09271 -0.95551,0.54122 -1.39179,0.59148 -5.16916,0.59547 -3.78651,0.004 -4.21912,-0.0451 -5.26379,-0.59756 z m 8.90864,-1.67689 c 1.13563,-0.30456 1.45453,-1.63042 1.36035,-5.65578 -0.0758,-3.24059 -0.15113,-3.75778 -0.64311,-4.41636 l -0.55725,-0.74595 -3.74697,-0.0734 c -3.68226,-0.0722 -3.75831,-0.0621 -4.40369,0.58329 -0.64483,0.64483 -0.65673,0.73386 -0.65673,4.91412 0,4.16741 0.0137,4.27111 0.64943,4.90682 0.6223,0.6223 0.7909,0.64928 4.0349,0.64582 1.862,-0.002 3.64539,-0.0733 3.96307,-0.15852 z m 7.49218,-5.79099 v -8.10022 l 1.12448,0.0814 1.12448,0.0814 0.0725,4.43176 0.0725,4.43178 1.38266,-0.002 1.38267,-0.002 1.67795,-2.2474 1.67795,-2.24741 h 1.29861 c 0.71424,0 1.29861,0.0965 1.29861,0.21437 0,0.1179 -0.8883,1.33317 -1.97401,2.70059 l -1.97402,2.48622 0.60452,0.80515 c 2.98609,3.97715 3.6081,4.8612 3.6081,5.12823 0,0.18775 -0.4637,0.30718 -1.19266,0.30718 h -1.19266 l -1.9162,-2.62803 -1.91619,-2.62803 -1.37948,-0.0178 -1.37949,-0.0178 -0.0757,2.57969 -0.0757,2.57969 -1.12448,0.0814 -1.12448,0.0813 z m 13.41929,7.88538 c -0.0677,-0.11686 0.69864,-2.23653 1.70292,-4.71038 1.00427,-2.47386 2.25925,-5.62902 2.78884,-7.01147 0.52959,-1.38245 1.14002,-2.72189 1.35651,-2.97655 0.4752,-0.55898 3.13875,-0.65125 3.81897,-0.1323 0.23843,0.1819 0.78595,1.28323 1.2167,2.44739 0.43076,1.16417 1.68719,4.31289 2.79207,6.99716 1.10488,2.68426 2.00887,5.04259 2.00887,5.24073 0,0.26012 -0.312,0.33764 -1.12251,0.2789 -1.03958,-0.0754 -1.16548,-0.16932 -1.70418,-1.27199 -0.31991,-0.65484 -0.58869,-1.37517 -0.59728,-1.60073 -0.0349,-0.91744 -0.58652,-1.0451 -4.51556,-1.0451 h -3.86495 l -0.77913,1.91823 c -0.7785,1.9167 -0.78,1.91829 -1.87868,1.9984 -0.60476,0.0441 -1.15492,-0.0154 -1.22259,-0.13229 z m 10.92238,-5.86776 c 0,-0.23064 -1.30192,-3.51512 -2.35543,-5.94227 -0.30529,-0.70334 -0.6767,-1.23826 -0.82536,-1.18871 -0.20438,0.0681 -3.16921,6.88269 -3.16921,7.28431 0,0.0429 1.42875,0.078 3.175,0.078 1.74625,0 3.175,-0.1041 3.175,-0.23133 z m 7.32014,5.87578 c -0.097,-0.097 -0.17639,-0.57326 -0.17639,-1.05834 v -0.88194 h 1.5875 1.5875 v -5.55625 -5.55626 h -1.60347 -1.60348 l 0.0821,-0.99218 0.0821,-0.99218 h 4.23333 4.23334 l 0.0821,0.99218 0.0821,0.99218 h -1.60347 -1.60347 v 5.55626 5.55625 h 1.5875 1.5875 v 1.05833 1.05834 h -4.18924 c -2.30408,0 -4.26861,-0.0794 -4.36562,-0.17639 z"
       id="path228" /></g></svg>
