<?xml version="1.0" encoding="UTF-8" standalone="no"?>
<!-- Created with Inkscape (http://www.inkscape.org/) -->

<svg
   width="70.345039mm"
   height="89.156548mm"
   viewBox="0 0 70.345039 89.156548"
   version="1.1"
   id="svg5"
   xml:space="preserve"
   xmlns:inkscape="http://www.inkscape.org/namespaces/inkscape"
   xmlns:sodipodi="http://sodipodi.sourceforge.net/DTD/sodipodi-0.dtd"
   xmlns="http://www.w3.org/2000/svg"
   xmlns:svg="http://www.w3.org/2000/svg"><sodipodi:namedview
     id="namedview7"
     pagecolor="#ffffff"
     bordercolor="#000000"
     borderopacity="0.25"
     inkscape:showpageshadow="2"
     inkscape:pageopacity="0.0"
     inkscape:pagecheckerboard="0"
     inkscape:deskcolor="#d1d1d1"
     inkscape:document-units="mm"
     showgrid="false" /><defs
     id="defs2" /><g
     inkscape:label="Layer 1"
     inkscape:groupmode="layer"
     id="layer1"
     transform="translate(-93.955225,-24.466602)"><path
       style="fill:#ffffff;stroke-width:0.264583"
       d="m 101.89607,112.99156 c -1.921915,-1.01633 -2.120015,-1.6792 -2.120015,-7.0939 0,-4.39845 0.0336,-4.7107 0.595315,-5.53606 1.25383,-1.842246 1.64547,-1.972536 6.21363,-2.067086 4.97094,-0.10289 6.03502,0.17629 7.16219,1.879096 0.70668,1.06758 0.71324,1.12034 0.71324,5.72733 0,5.31219 -0.2076,6.00304 -2.13141,7.09271 -0.95551,0.54122 -1.39179,0.59148 -5.16916,0.59547 -3.78651,0.004 -4.21912,-0.0451 -5.26379,-0.59756 z m 8.90864,-1.67689 c 1.13563,-0.30456 1.45453,-1.63042 1.36035,-5.65578 -0.0758,-3.24059 -0.15113,-3.75778 -0.64311,-4.41636 l -0.55725,-0.74595 -3.74697,-0.0734 c -3.68226,-0.0722 -3.75831,-0.0621 -4.40369,0.58329 -0.64483,0.64483 -0.65673,0.73386 -0.65673,4.91412 0,4.16741 0.0137,4.27111 0.64943,4.90682 0.6223,0.6223 0.7909,0.64928 4.0349,0.64582 1.862,-0.002 3.64539,-0.0733 3.96307,-0.15852 z m 7.49218,-5.79099 v -8.100226 l 1.12448,0.0814 1.12448,0.0814 0.0725,4.431766 0.0725,4.43178 1.38266,-0.002 1.38267,-0.002 1.67795,-2.2474 1.67795,-2.24741 h 1.29861 c 0.71424,0 1.29861,0.0965 1.29861,0.21437 0,0.1179 -0.8883,1.33317 -1.97401,2.70059 l -1.97402,2.48622 0.60452,0.80515 c 2.98609,3.97715 3.6081,4.8612 3.6081,5.12823 0,0.18775 -0.4637,0.30718 -1.19266,0.30718 h -1.19266 l -1.9162,-2.62803 -1.91619,-2.62803 -1.37948,-0.0178 -1.37949,-0.0178 -0.0757,2.57969 -0.0757,2.57969 -1.12448,0.0814 -1.12448,0.0813 z m 13.41929,7.88538 c -0.0677,-0.11686 0.69864,-2.23653 1.70292,-4.71038 1.00427,-2.47386 2.25925,-5.62902 2.78884,-7.01147 0.52959,-1.38245 1.14002,-2.721896 1.35651,-2.976556 0.4752,-0.55898 3.13875,-0.65125 3.81897,-0.1323 0.23843,0.1819 0.78595,1.28323 1.2167,2.447396 0.43076,1.16417 1.68719,4.31289 2.79207,6.99716 1.10488,2.68426 2.00887,5.04259 2.00887,5.24073 0,0.26012 -0.312,0.33764 -1.12251,0.2789 -1.03958,-0.0754 -1.16548,-0.16932 -1.70418,-1.27199 -0.31991,-0.65484 -0.58869,-1.37517 -0.59728,-1.60073 -0.0349,-0.91744 -0.58652,-1.0451 -4.51556,-1.0451 h -3.86495 l -0.77913,1.91823 c -0.7785,1.9167 -0.78,1.91829 -1.87868,1.9984 -0.60476,0.0441 -1.15492,-0.0154 -1.22259,-0.13229 z m 10.92238,-5.86776 c 0,-0.23064 -1.30192,-3.51512 -2.35543,-5.94227 -0.30529,-0.70334 -0.6767,-1.23826 -0.82536,-1.18871 -0.20438,0.0681 -3.16921,6.88269 -3.16921,7.28431 0,0.0429 1.42875,0.078 3.175,0.078 1.74625,0 3.175,-0.1041 3.175,-0.23133 z m 7.32014,5.87578 c -0.097,-0.097 -0.17639,-0.57326 -0.17639,-1.05834 v -0.88194 h 1.5875 1.5875 v -5.55625 -5.55626 h -1.60347 -1.60348 l 0.0821,-0.992186 0.0821,-0.99218 h 4.23333 4.23334 l 0.0821,0.99218 0.0821,0.992186 h -1.60347 -1.60347 v 5.55626 5.55625 h 1.5875 1.5875 v 1.05833 1.05834 h -4.18924 c -2.30408,0 -4.26861,-0.0794 -4.36562,-0.17639 z M 112.07918,88.755334 c -4.14476,-0.94933 -7.45781,-2.72123 -10.63375,-5.68721 -5.036704,-4.70372 -7.490204,-10.32059 -7.490204,-17.1475 0,-3.72216 0.45633,-6.02277 1.82732,-9.21258 1.30934,-3.04636 2.673089,-5.044255 5.072114,-7.430654 3.06158,-3.045465 6.86194,-5.151895 11.2633,-6.24292 2.73472,-0.677892 7.79776,-0.616453 10.64933,0.129225 6.0509,1.582298 11.22774,5.356609 14.26163,10.397819 2.37233,3.94194 3.22853,6.8155 3.42602,11.4983 0.27856,6.6051 -1.75554,12.08556 -6.25651,16.85682 -2.96614,3.14427 -7.03727,5.58778 -11.13904,6.68572 -2.593,0.69407 -8.27231,0.7732 -10.98021,0.15298 z m 9.58837,-10.78745 c 3.36395,-1.31754 5.69598,-3.51935 7.26049,-6.85506 0.74584,-1.59019 0.87578,-2.18404 0.96693,-4.41894 0.12013,-2.94516 -0.14568,-4.27279 -1.35001,-6.74278 -1.52434,-3.12635 -4.65444,-5.58765 -8.30188,-6.52807 -2.0656,-0.53258 -3.70887,-0.5304 -5.89803,0.008 -4.61644,1.13496 -7.86887,4.1006 -9.31948,8.4977 -1.46229,4.43248 -0.37425,9.40039 2.78777,12.72878 2.70535,2.84769 5.34852,3.97695 9.35629,3.99734 2.32362,0.0118 2.96377,-0.0859 4.49792,-0.68679 z m 20.92739,-11.40393 c 0.0647,-2.65386 -0.0248,-4.12584 -0.33072,-5.44055 -0.57989,-2.492 -0.55416,-2.63697 0.57278,-3.22705 0.5457,-0.28574 1.64703,-0.89076 2.44739,-1.34448 0.80037,-0.45373 2.26252,-1.26312 3.24925,-1.79867 0.98671,-0.53554 2.17734,-1.18667 2.64583,-1.44696 0.46849,-0.26029 2.10195,-1.165409 3.62992,-2.011377 1.52797,-0.845965 3.15179,-1.761516 3.6085,-2.034553 l 0.98776,1.536963 2.41441,2.747807 c 1.97091,2.243063 2.5291,4.81638 2.47692,4.85939 -0.27817,0.22925 -21.47964,11.79735 -21.62191,11.7975 -0.0928,9e-5 -0.1289,-1.63702 -0.0801,-3.63802 z m -2.87396,-12.70018 c -1.09083,-1.949115 -3.12638,-4.704539 -4.33846,-5.872735 -0.52032,-0.501489 -0.94604,-0.999072 -0.94604,-1.105741 0,-0.167154 4.07977,-2.490878 12.96458,-7.384259 1.23693,-0.681247 2.78474,-1.536737 3.43958,-1.901087 0.65484,-0.36435 1.84547,-1.024437 2.64583,-1.46686 0.80037,-0.442423 2.19307,-1.22278 3.09489,-1.734127 2.38856,-1.354357 2.6078,-1.391182 3.10931,-0.522248 1.71501,2.971485 4.57328,8.443267 4.48511,8.586147 -0.0946,0.153321 -2.45635,1.483339 -7.91118,4.455205 -0.87313,0.475689 -2.65906,1.462746 -3.96875,2.193459 -1.30969,0.730713 -2.8575,1.589408 -3.43958,1.90821 -0.58209,0.318801 -2.61416,1.431435 -4.51572,2.472516 -1.90156,1.04108 -3.5273,1.89288 -3.61276,1.89288 -0.0855,0 -0.53853,-0.68461 -1.00681,-1.52136 z M 130.8646,44.35333 c -1.02722,-0.793795 -5.31405,-2.677125 -7.07186,-3.106877 -0.97911,-0.239374 -2.88411,-0.583872 -4.23333,-0.765551 -1.68335,-0.226671 -2.28709,-0.393597 -1.92398,-0.531953 0.29105,-0.110894 1.66026,-0.839184 3.04271,-1.618419 1.38245,-0.779237 5.19245,-2.898433 8.46667,-4.709329 3.27422,-1.810893 8.37185,-4.632116 11.32808,-6.269384 2.95622,-1.637271 5.40932,-2.934957 5.45133,-2.883749 0.042,0.05121 0.70773,1.283729 1.47939,2.738937 0.77165,1.455209 1.86066,3.460165 2.42002,4.455459 0.55935,0.995296 1.01701,1.955509 1.01701,2.133809 0,0.1783 -0.38695,0.520031 -0.85989,0.759399 -0.47295,0.239369 -1.8124,0.956527 -2.97657,1.593689 -2.89459,1.584243 -7.36821,4.045312 -9.12812,5.021651 -0.80037,0.444016 -1.99099,1.099802 -2.64583,1.457301 -0.65485,0.3575 -1.78594,0.983888 -2.51355,1.391971 -1.21772,0.682968 -1.36499,0.709451 -1.85208,0.333046 z"
       id="path228"
       sodipodi:nodetypes="cscsssssccssccssssccccccccccccssscssscccccccccccssssssscscscsscsssssscscccccccccccccccccccccsccsssssssssssscsscscsssccccsssssscscscccssssssscssssscsssssssssssssssss" /></g></svg>
